<svg xmlns="http://www.w3.org/2000/svg" version="1.1" viewBox="0 0 180 180">
<style>
    path {
      stroke: rgb(255,239,213);
      fill: rgb(162,122,65);
    }
  </style>
  <g transform="translate(-88, 257) scale(-0.1, 0.1) rotate(-180)">
    <path id="F" d="m 1880.37,1555.69 c -67.51,0 -131.47,0 -197.84,0 0,-267.81 0,-534.86 0,-800.85 -100.75,100.969 -200.8,201.269 -300.86,301.57 1.31,1.38 7.24,1.84 12.8,2.58 45.43,6.02 81.33,46.95 82.18,96.55 1.13,65.52 0.31,131.07 0.31,196.61 0,343.2 0.33,686.4 -0.27,1029.6 -0.13,74.78 -29.92,135.95 -92.47,179.39 -2.17,1.51 -4.36,3.08 -4.08,7.4 267.01,0 534.05,0 801.08,0 1.11,-4.09 -1.62,-5.8 -4.12,-7.59 -50.42,-35.83 -80.32,-83.77 -89.11,-145.55 -6.11,-42.87 -1.54,-85.72 -3.38,-128.54 -0.29,-6.55 0.99,-13.22 -1.82,-21.27 -66.61,0 -133.61,0 -203.05,0 0,66.03 0,131.62 0,198.32 -70.8,0 -139.17,0 -208.64,0 0,-267.01 0,-533.74 0,-802.36 137.25,0 274.2,0 409.77,0 4.92,-6.05 3.68,-11.11 3.69,-15.82 0.1,-58.89 0.02,-117.79 0.13,-176.68 0,-7.3 -1.07,-13.24 -6.86,-18.98 -62.57,-62.19 -124.78,-124.74 -187.15,-187.13 -2.11,-2.11 -4.84,-3.6 -10.31,-7.59 0,101.3 0,199.87 0,300.34"/>
    <path id="H1" d="m 1277.75,2065.67 c 0,167.7 0,333.97 0,501.36 -101.27,-101.26 -200.62,-200.6 -300.848,-300.82 6.348,-1.62 12.985,-3.55 19.715,-5 13.153,-2.84 25.143,-8.04 35.933,-16.18 29.15,-21.98 41.11,-51.8 41.07,-87.58 -0.06,-52.27 -0.06,-104.56 -0.05,-156.84 l -0.01,0.01 v -25.43 c 0,-57.91 0.01,-115.81 -0.05,-173.72 0,-4.07 -0.09,-8.12 0.05,-12.09 v -37.74 c -0.07,-0.6 -0.08,-1.21 0,-1.82 v -46.05 c -0.09,-1.93 -0.14,-3.86 -0.12,-5.79 0.07,-8.62 0.1,-17.25 0.12,-25.88 v -35.08 c 0,0 0.01,0 0.01,0.01 -0.04,-24.85 -0.12,-49.69 0.06,-74.54 0.4,-55.35 -40.35,-98.46 -89.966,-101.93 -3.023,-0.21 -6.391,-0.37 -3.734,-1.17 99.18,-99.4 198.35,-198.8 298.39,-299.05 0,231.92 0,464.77 0,700.01 51.86,0 101.14,0 150.95,0 0,68.94 0,135.48 0,202.51 -50.27,6.55 -99.73,-0.15 -151.52,2.81"/>
    <path id="H2" d="m 2584.29,1458.47 c -99.76,-99.73 -198.94,-198.87 -300.41,-300.31 -0.17,57.96 -0.4,115.33 -0.48,172.7 -0.08,58.45 -0.02,116.89 -0.02,175.34 0,58.44 0,116.89 0,175.33 0,58.38 0,116.76 0,177.83 -185.24,0 -368.98,0 -554.34,0 0,69.13 0,135.59 0,205.09 184.29,0 368.4,0 554.65,0 0,169.08 0,335.14 0,501.2 1.26,0.54 2.53,1.07 3.79,1.61 99.81,-99.34 199.79,-198.5 297.82,-299.68 -0.47,-0.6 -0.97,-1.84 -1.53,-1.87 -56.03,-2.67 -96.87,-50.94 -96.09,-109.97 1.5,-113.33 0.43,-226.69 0.43,-340.03 -0.01,-80.58 -0.13,-161.17 0.08,-241.75 0.06,-23.04 1.21,-45.87 14.58,-66.3 17.77,-27.18 41.71,-43.88 74.46,-47.03 3,-0.29 6.37,-0.14 7.06,-2.16"/>
  </g>
</svg>